<!DOCTYPE svg PUBLIC "-//W3C//DTD SVG 1.1//EN" "http://www.w3.org/Graphics/SVG/1.1/DTD/svg11.dtd">
<!-- Uploaded to: SVG Repo, www.svgrepo.com, Transformed by: SVG Repo Mixer Tools -->
<svg height="800px" width="800px" version="1.1" id="Layer_1" xmlns="http://www.w3.org/2000/svg" xmlns:xlink="http://www.w3.org/1999/xlink" viewBox="0 0 512 512" xml:space="preserve" fill="#000000">
<g id="SVGRepo_bgCarrier" stroke-width="0"/>
<g id="SVGRepo_tracerCarrier" stroke-linecap="round" stroke-linejoin="round"/>
<g id="SVGRepo_iconCarrier"> <g transform="translate(1 1)"> <path style="fill:#CCCCCC;" d="M502.467,255c0,136.533-110.933,247.467-247.467,247.467S7.533,391.533,7.533,255 S118.467,7.533,255,7.533S502.467,118.467,502.467,255"/> <path style="fill:#E2E3E5;" d="M476.867,255c0,136.533-98.987,247.467-221.867,247.467S33.133,391.533,33.133,255 S132.12,7.533,255,7.533S476.867,118.467,476.867,255"/> <polygon style="fill:#E0E0E0;" points="217.453,282.307 75.8,258.413 381.293,118.467 233.667,416.28 "/> <path style="fill:#F0F0F0;" d="M192.707,282.307c1.707,0.853,3.413,0.853,5.12,1.707c12.8,3.413,18.773,11.947,21.333,23.893 c6.827,16.213,8.533,35.84,12.8,53.76l115.2-232.107c-30.72,13.653-61.44,27.307-92.16,40.107 c-12.8,6.827-25.6,14.507-39.253,21.333s-28.16,11.093-41.813,16.213c-29.867,17.067-61.44,40.107-93.867,49.493l111.787,18.773 L192.707,282.307z"/> <path style="fill:#FFFFFF;" d="M33.133,255C33.133,118.467,132.12,7.533,255,7.533C118.467,7.533,7.533,118.467,7.533,255 S118.467,502.467,255,502.467C132.12,502.467,33.133,391.533,33.133,255"/> <g> <path style="fill:#468ea0;" d="M233.667,424.813c-0.853,0-0.853,0-1.707,0c-3.413-0.853-6.827-3.413-6.827-7.68l-15.36-128 L74.947,266.947c-3.413-0.853-6.827-3.413-6.827-7.68c-0.853-3.413,1.707-7.68,5.12-8.533l305.493-139.947 c3.413-1.707,6.827-0.853,9.387,1.707c2.56,2.56,3.413,6.827,1.707,9.387l-148.48,297.813 C239.64,423.107,237.08,424.813,233.667,424.813z M104.813,255l114.347,18.773c3.413,0.853,6.827,3.413,6.827,7.68l12.8,105.813 l124.587-250.88L104.813,255z"/> <path style="fill:#468ea0;" d="M255,511C114.2,511-1,395.8-1,255S114.2-1,255-1s256,115.2,256,256S395.8,511,255,511z M255,16.067 C123.587,16.067,16.067,123.587,16.067,255S123.587,493.933,255,493.933S493.933,386.413,493.933,255S386.413,16.067,255,16.067z"/> </g> </g> </g>
</svg>